<svg width="89" height="36" viewBox="0 0 89 36" fill="none" xmlns="http://www.w3.org/2000/svg">
<path d="M7.104 18L4.448 13.44H2.688V18H1.232V6.848H4.832C5.67467 6.848 6.384 6.992 6.96 7.28C7.54667 7.568 7.984 7.95733 8.272 8.448C8.56 8.93867 8.704 9.49867 8.704 10.128C8.704 10.896 8.48 11.5733 8.032 12.16C7.59467 12.7467 6.93333 13.136 6.048 13.328L8.848 18H7.104ZM2.688 12.272H4.832C5.62133 12.272 6.21333 12.08 6.608 11.696C7.00267 11.3013 7.2 10.7787 7.2 10.128C7.2 9.46667 7.00267 8.95467 6.608 8.592C6.224 8.22933 5.632 8.048 4.832 8.048H2.688V12.272ZM18.9664 13.28C18.9664 13.5573 18.9504 13.8507 18.9184 14.16H11.9104C11.9637 15.024 12.257 15.7013 12.7904 16.192C13.3344 16.672 13.9904 16.912 14.7584 16.912C15.3877 16.912 15.9104 16.768 16.3264 16.48C16.753 16.1813 17.0517 15.7867 17.2224 15.296H18.7904C18.5557 16.1387 18.0864 16.8267 17.3824 17.36C16.6784 17.8827 15.8037 18.144 14.7584 18.144C13.9264 18.144 13.1797 17.9573 12.5184 17.584C11.8677 17.2107 11.3557 16.6827 10.9824 16C10.609 15.3067 10.4224 14.5067 10.4224 13.6C10.4224 12.6933 10.6037 11.8987 10.9664 11.216C11.329 10.5333 11.8357 10.0107 12.4864 9.648C13.1477 9.27467 13.905 9.088 14.7584 9.088C15.5904 9.088 16.3264 9.26933 16.9664 9.632C17.6064 9.99467 18.097 10.496 18.4384 11.136C18.7904 11.7653 18.9664 12.48 18.9664 13.28ZM17.4624 12.976C17.4624 12.4213 17.3397 11.9467 17.0944 11.552C16.849 11.1467 16.513 10.8427 16.0864 10.64C15.6704 10.4267 15.2064 10.32 14.6944 10.32C13.9584 10.32 13.329 10.5547 12.8064 11.024C12.2944 11.4933 12.001 12.144 11.9264 12.976H17.4624ZM20.3443 13.584C20.3443 12.688 20.5256 11.904 20.8883 11.232C21.2509 10.5493 21.7469 10.0213 22.3763 9.648C23.0163 9.27467 23.7256 9.088 24.5043 9.088C25.2723 9.088 25.9389 9.25333 26.5043 9.584C27.0696 9.91467 27.4909 10.3307 27.7683 10.832V9.232H29.2403V18H27.7683V16.368C27.4803 16.88 27.0483 17.3067 26.4723 17.648C25.9069 17.9787 25.2456 18.144 24.4883 18.144C23.7096 18.144 23.0056 17.952 22.3763 17.568C21.7469 17.184 21.2509 16.6453 20.8883 15.952C20.5256 15.2587 20.3443 14.4693 20.3443 13.584ZM27.7683 13.6C27.7683 12.9387 27.6349 12.3627 27.3683 11.872C27.1016 11.3813 26.7389 11.008 26.2803 10.752C25.8323 10.4853 25.3363 10.352 24.7923 10.352C24.2483 10.352 23.7523 10.48 23.3043 10.736C22.8563 10.992 22.4989 11.3653 22.2323 11.856C21.9656 12.3467 21.8323 12.9227 21.8323 13.584C21.8323 14.256 21.9656 14.8427 22.2323 15.344C22.4989 15.8347 22.8563 16.2133 23.3043 16.48C23.7523 16.736 24.2483 16.864 24.7923 16.864C25.3363 16.864 25.8323 16.736 26.2803 16.48C26.7389 16.2133 27.1016 15.8347 27.3683 15.344C27.6349 14.8427 27.7683 14.2613 27.7683 13.6ZM31.1568 13.584C31.1568 12.688 31.3381 11.904 31.7008 11.232C32.0634 10.5493 32.5594 10.0213 33.1888 9.648C33.8288 9.27467 34.5434 9.088 35.3328 9.088C36.0154 9.088 36.6501 9.248 37.2368 9.568C37.8234 9.87733 38.2714 10.288 38.5808 10.8V6.16H40.0528V18H38.5808V16.352C38.2928 16.8747 37.8661 17.3067 37.3008 17.648C36.7354 17.9787 36.0741 18.144 35.3168 18.144C34.5381 18.144 33.8288 17.952 33.1888 17.568C32.5594 17.184 32.0634 16.6453 31.7008 15.952C31.3381 15.2587 31.1568 14.4693 31.1568 13.584ZM38.5808 13.6C38.5808 12.9387 38.4474 12.3627 38.1808 11.872C37.9141 11.3813 37.5514 11.008 37.0928 10.752C36.6448 10.4853 36.1488 10.352 35.6048 10.352C35.0608 10.352 34.5648 10.48 34.1168 10.736C33.6688 10.992 33.3114 11.3653 33.0448 11.856C32.7781 12.3467 32.6448 12.9227 32.6448 13.584C32.6448 14.256 32.7781 14.8427 33.0448 15.344C33.3114 15.8347 33.6688 16.2133 34.1168 16.48C34.5648 16.736 35.0608 16.864 35.6048 16.864C36.1488 16.864 36.6448 16.736 37.0928 16.48C37.5514 16.2133 37.9141 15.8347 38.1808 15.344C38.4474 14.8427 38.5808 14.2613 38.5808 13.6ZM57.3229 9.072C58.0055 9.072 58.6135 9.216 59.1469 9.504C59.6802 9.78133 60.1015 10.2027 60.4109 10.768C60.7202 11.3333 60.8749 12.0213 60.8749 12.832V18H59.4349V13.04C59.4349 12.1653 59.2162 11.4987 58.7789 11.04C58.3522 10.5707 57.7709 10.336 57.0349 10.336C56.2775 10.336 55.6749 10.5813 55.2269 11.072C54.7789 11.552 54.5549 12.2507 54.5549 13.168V18H53.1149V13.04C53.1149 12.1653 52.8962 11.4987 52.4589 11.04C52.0322 10.5707 51.4509 10.336 50.7149 10.336C49.9575 10.336 49.3549 10.5813 48.9069 11.072C48.4589 11.552 48.2349 12.2507 48.2349 13.168V18H46.7789V9.232H48.2349V10.496C48.5229 10.0373 48.9069 9.68533 49.3869 9.44C49.8775 9.19467 50.4162 9.072 51.0029 9.072C51.7389 9.072 52.3895 9.23733 52.9549 9.568C53.5202 9.89867 53.9415 10.384 54.2189 11.024C54.4642 10.4053 54.8695 9.92533 55.4349 9.584C56.0002 9.24267 56.6295 9.072 57.3229 9.072ZM67.0873 18.144C66.2659 18.144 65.5193 17.9573 64.8473 17.584C64.1859 17.2107 63.6633 16.6827 63.2793 16C62.9059 15.3067 62.7193 14.5067 62.7193 13.6C62.7193 12.704 62.9113 11.9147 63.2953 11.232C63.6899 10.5387 64.2233 10.0107 64.8953 9.648C65.5673 9.27467 66.3193 9.088 67.1513 9.088C67.9833 9.088 68.7353 9.27467 69.4073 9.648C70.0793 10.0107 70.6073 10.5333 70.9913 11.216C71.3859 11.8987 71.5833 12.6933 71.5833 13.6C71.5833 14.5067 71.3806 15.3067 70.9753 16C70.5806 16.6827 70.0419 17.2107 69.3593 17.584C68.6766 17.9573 67.9193 18.144 67.0873 18.144ZM67.0873 16.864C67.6099 16.864 68.1006 16.7413 68.5593 16.496C69.0179 16.2507 69.3859 15.8827 69.6633 15.392C69.9513 14.9013 70.0953 14.304 70.0953 13.6C70.0953 12.896 69.9566 12.2987 69.6793 11.808C69.4019 11.3173 69.0393 10.9547 68.5913 10.72C68.1433 10.4747 67.6579 10.352 67.1353 10.352C66.6019 10.352 66.1113 10.4747 65.6633 10.72C65.2259 10.9547 64.8739 11.3173 64.6073 11.808C64.3406 12.2987 64.2073 12.896 64.2073 13.6C64.2073 14.3147 64.3353 14.9173 64.5913 15.408C64.8579 15.8987 65.2099 16.2667 65.6473 16.512C66.0846 16.7467 66.5646 16.864 67.0873 16.864ZM74.9536 10.656C75.2096 10.1547 75.5723 9.76533 76.0416 9.488C76.5216 9.21067 77.103 9.072 77.7856 9.072V10.576H77.4016C75.7696 10.576 74.9536 11.4613 74.9536 13.232V18H73.4976V9.232H74.9536V10.656ZM87.4664 13.28C87.4664 13.5573 87.4504 13.8507 87.4184 14.16H80.4104C80.4637 15.024 80.757 15.7013 81.2904 16.192C81.8344 16.672 82.4904 16.912 83.2584 16.912C83.8877 16.912 84.4104 16.768 84.8264 16.48C85.253 16.1813 85.5517 15.7867 85.7224 15.296H87.2904C87.0557 16.1387 86.5864 16.8267 85.8824 17.36C85.1784 17.8827 84.3037 18.144 83.2584 18.144C82.4264 18.144 81.6797 17.9573 81.0184 17.584C80.3677 17.2107 79.8557 16.6827 79.4824 16C79.109 15.3067 78.9224 14.5067 78.9224 13.6C78.9224 12.6933 79.1037 11.8987 79.4664 11.216C79.829 10.5333 80.3357 10.0107 80.9864 9.648C81.6477 9.27467 82.405 9.088 83.2584 9.088C84.0904 9.088 84.8264 9.26933 85.4664 9.632C86.1064 9.99467 86.597 10.496 86.9384 11.136C87.2904 11.7653 87.4664 12.48 87.4664 13.28ZM85.9624 12.976C85.9624 12.4213 85.8397 11.9467 85.5944 11.552C85.349 11.1467 85.013 10.8427 84.5864 10.64C84.1704 10.4267 83.7064 10.32 83.1944 10.32C82.4584 10.32 81.829 10.5547 81.3064 11.024C80.7944 11.4933 80.501 12.144 80.4264 12.976H85.9624Z" fill="black"/>
<line x1="6" y1="35.5" x2="83" y2="35.5" stroke="black"/>
</svg>
